PathFileType	4	(X/Y/Z)	E:\Qualisys_Data\Carbon_Farble_Plate\Data\Amateur_Runner\S2\T2\S2T2V23_c3d.trc
DataRate	CameraRate	NumFrames	NumMarkers	Units	OrigDataRate	OrigDataStartFrame	OrigNumFrames
200.000000	200.000000	4	39	mm	200.000000	229	306
Frame#	Time	LSHO			RSHO			LICST			RICST			LASIS			LHEEL			RASIS			LTROC			RTROC			SACR			LTH1			LSK4			LTH2			LTH3			RHM5			LSK2			LTH4			RTH1			LTOE			RTH2			RTH3			RTH4			LLEP			RLEP			LSK1			LSK3			RSK1			LHM5			RSK2			LFT1			RSK3			RSK4			LLME			RLME			RTOE			RHEEL			RFT1			RFT2			LFT2			
		X1	Y1	Z1	X2	Y2	Z2	X3	Y3	Z3	X4	Y4	Z4	X5	Y5	Z5	X6	Y6	Z6	X7	Y7	Z7	X8	Y8	Z8	X9	Y9	Z9	X10	Y10	Z10	X11	Y11	Z11	X12	Y12	Z12	X13	Y13	Z13	X14	Y14	Z14	X15	Y15	Z15	X16	Y16	Z16	X17	Y17	Z17	X18	Y18	Z18	X19	Y19	Z19	X20	Y20	Z20	X21	Y21	Z21	X22	Y22	Z22	X23	Y23	Z23	X24	Y24	Z24	X25	Y25	Z25	X26	Y26	Z26	X27	Y27	Z27	X28	Y28	Z28	X29	Y29	Z29	X30	Y30	Z30	X31	Y31	Z31	X32	Y32	Z32	X33	Y33	Z33	X34	Y34	Z34	X35	Y35	Z35	X36	Y36	Z36	X37	Y37	Z37	X38	Y38	Z38	X39	Y39	Z39	

230	1.145	1615.053588867188	1472.340698242188	-431.8733215332031	1715.776733398438	1454.500244140625	-153.7548217773438	1630.342651367188	1003.155334472656	-423.6548156738281	1658.423706054688	989.9256591796876	-125.647705078125	1689.107177734375	954.7169189453124	-405.0700988769531	1803.062133789062	67.4086685180664	-279.1904602050781	1711.297241210938	938.5171508789062	-149.4263610839844	1570.133422851562	878.5657348632812	-430.5973205566406	1551.707641601562	905.4639282226562	-117.6868667602539	1549.04931640625	1039.515014648438	-263.5494689941406	1753.097534179688	652.4035034179688	-441.1324768066406	1764.50390625	274.3179931640625	-388.6542053222656	1673.55712890625	623.986572265625	-435.7248229980469	1787.30615234375	560.7640991210938	-405.1337890625	994.06787109375	428.3526000976562	-160.2502899169922	1746.278564453125	369.9147338867188	-406.3997802734375	1705.78466796875	535.4010009765625	-399.1508178710938	1595.063842773438	624.5859985351562	-109.6837615966797	2025.094848632812	172.0630493164062	-338.3236694335938	1523.036865234375	652.747314453125	-111.1887435913086	1559.458862304688	530.201171875	-118.2627944946289	1485.736694335938	562.0186157226562	-128.3774719238281	1763.206787109375	508.5647888183594	-396.9606018066406	1491.659423828125	522.87646484375	-119.4396286010742	1822.75439453125	386.2105102539062	-395.8451232910156	1841.844970703125	289.0862121582031	-382.5500793457031	1386.237182617188	473.7767333984375	-119.676887512207	1980.6552734375	117.283805847168	-383.1822204589844	1383.685424804688	553.6270751953125	-125.3980026245117	1829.378784179688	53.27955627441406	-256.4174194335938	1285.081420898438	469.3987731933594	-133.8649139404297	1285.509155273438	548.0667724609375	-142.8850402832031	1849.29638671875	104.9772338867188	-350.06591796875	1102.45654296875	502.8770751953125	-182.0820770263672	988.459716796875	342.5927429199219	-199.7695770263672	1132.261352539062	542.851806640625	-247.154296875	1108.067260742188	532.8701171875	-284.1917114257812	1102.743774414062	562.5153198242188	-235.5049591064453	1821.22216796875	35.04372024536133	-307.8125305175781
231	1.15	1637.282592773438	1466.874389648438	-433.8695983886719	1736.456298828125	1449.91015625	-154.0533599853516	1651.065673828125	998.81103515625	-423.481689453125	1679.3525390625	985.573486328125	-125.6837921142578	1709.840209960938	950.357666015625	-405.3586120605469	1814.18115234375	69.56505584716797	-278.0955810546875	1732.742065429688	934.2871704101562	-149.2353210449219	1591.347412109375	873.9410400390625	-430.3131103515625	1573.157470703125	900.1629638671875	-116.6869735717773	1570.157836914062	1034.784301757812	-262.9480285644531	1775.639526367188	649.4796142578125	-439.6910400390625	1781.155883789062	270.0512390136719	-387.3567810058594	1696.200927734375	621.5501708984375	-433.575439453125	1809.911499023438	558.4422607421875	-403.2043762207031	1022.236328125	436.8211364746094	-159.6266326904297	1765.334716796875	366.040283203125	-405.2637329101562	1728.8212890625	532.89306640625	-396.4199829101562	1620.67236328125	619.2403564453125	-108.3040237426758	2039.90234375	163.2961730957031	-335.0218811035156	1547.568237304688	646.28271484375	-110.3747406005859	1586.541625976562	524.3668823242188	-116.4346542358398	1512.209228515625	554.9487915039062	-127.1468353271484	1784.456787109375	505.0159301757812	-395.6325378417969	1519.593627929688	516.4974365234375	-117.262825012207	1841.713989257812	380.5293579101562	-394.3123779296875	1859.076049804688	283.4674682617188	-380.6438293457031	1413.752319335938	469.671630859375	-118.6814956665039	1993.970703125	109.4501647949219	-380.9170227050781	1413.543579101562	549.6359252929688	-124.2194671630859	1838.693481445312	53.16341400146484	-255.7043762207031	1312.361328125	468.2902526855469	-133.4162292480469	1315.624267578125	547.1674194335938	-142.0196685791016	1862.593139648438	100.1840591430664	-348.6230163574219	1131.975952148438	509.2184753417969	-181.37890625	1014.384948730469	351.3659057617188	-198.7712554931641	1162.5888671875	547.68310546875	-247.4693756103516	1137.618408203125	537.609130859375	-284.0206909179688	1133.556762695312	568.113525390625	-235.7673950195312	1829.588745117188	37.96995162963867	-307.2306823730469
232	1.155	1659.613647460938	1460.722290039062	-435.3164672851562	1757.013549804688	1445.101684570312	-154.0429992675781	1671.155517578125	994.2108154296876	-423.3049011230469	1700.571533203125	980.5750122070312	-125.1464920043945	1730.276000976562	945.8997802734376	-405.275390625	1824.675415039062	77.16474914550781	-281.1508483886719	1753.819702148438	929.5405883789062	-149.3297729492188	1611.916137695312	868.9822387695312	-429.44677734375	1595.2041015625	894.419921875	-115.8295364379883	1590.583374023438	1029.8466796875	-262.6169128417969	1798.078491210938	646.9266357421875	-437.8786315917969	1797.156982421875	265.946044921875	-386.0203552246094	1718.948486328125	619.2824096679688	-431.3511047363281	1832.215576171875	555.743408203125	-400.5578002929688	1051.05419921875	444.5502319335938	-158.7367706298828	1783.496704101562	362.4682922363281	-403.8716125488281	1750.987182617188	530.4426879882812	-394.771484375	1645.936767578125	614.01171875	-106.8090591430664	2055.063232421875	152.2752838134766	-330.7372436523438	1572.913818359375	639.58544921875	-109.4148635864258	1613.675903320312	518.3466796875	-114.547492980957	1538.973876953125	547.4127197265625	-125.4786071777344	1805.619506835938	500.9700012207031	-394.298583984375	1547.306518554688	510.1037902832031	-115.2455596923828	1860.255004882812	375.3962707519531	-392.9287109375	1875.620361328125	277.7437744140625	-378.6147766113281	1441.671875	465.3477172851562	-117.4778137207031	2006.13818359375	100.8047714233398	-378.2299499511719	1443.983032226562	545.4104614257812	-122.6832809448242	1844.823852539062	56.63372039794922	-256.0723266601562	1340.033447265625	466.8494567871094	-132.7583618164062	1346.007690429688	546.07275390625	-140.8699188232422	1874.794311523438	95.1259994506836	-347.2811889648438	1161.874145507812	514.4789428710938	-181.5859527587891	1040.567504882812	359.7962036132812	-196.2833862304688	1193.104370117188	552.118408203125	-247.8264770507812	1168.084350585938	542.6978149414062	-284.2098388671875	1164.783325195312	573.0294189453125	-236.1005706787109	1836.156860351562	40.95808792114258	-307.9884643554688
233	1.16	1682.188842773438	1454.556640625	-437.4457397460938	1777.60302734375	1439.745849609375	-154.4462738037109	1691.348876953125	989.19482421875	-423.1134643554688	1721.737548828125	975.7454833984376	-124.9015197753906	1750.326782226562	940.945068359375	-405.6192626953125	1833.235229492188	73.46024322509766	-280.4752197265625	1774.842651367188	924.8190307617188	-149.3953399658203	1632.3974609375	863.7139282226562	-428.9312744140625	1616.783081054688	888.1339721679688	-114.8018188476562	1611.291870117188	1024.572875976562	-262.3494262695312	1820.734985351562	644.6499633789062	-435.5505676269531	1812.744873046875	261.517822265625	-385.0085144042969	1741.732299804688	617.9347534179688	-429.2015686035156	1854.284301757812	552.9290771484375	-398.0264892578125	1080.996948242188	451.6130981445312	-157.8376007080078	1801.375	358.1730041503906	-402.1090087890625	1773.027709960938	528.2804565429688	-394.0924682617188	1672.087036132812	608.3604736328125	-105.2050857543945	2066.622314453125	138.6398468017578	-327.6900634765625	1598.113647460938	632.5030517578125	-108.5348739624023	1641.374145507812	512.0931396484375	-112.750732421875	1566.058349609375	539.7510375976562	-123.8740463256836	1827.3046875	497.7615661621094	-392.8643493652344	1575.737426757812	502.6795043945312	-113.1255111694336	1878.466674804688	369.71044921875	-391.26904296875	1891.155639648438	271.6242980957031	-377.2171020507812	1469.856079101562	460.6552734375	-116.4929809570312	2015.514404296875	89.98444366455078	-374.9682312011719	1474.603393554688	540.7954711914062	-121.1408462524414	1852.162719726562	55.57744979858398	-255.1518402099609	1368.869140625	466.290283203125	-131.3834228515625	1376.781005859375	544.4069213867188	-139.9932250976562	1885.51708984375	89.82484436035156	-345.61376953125	1192.444946289062	519.0505981445312	-181.5672149658203	1068.92919921875	367.1181640625	-194.8935546875	1224.263061523438	556.3712768554688	-247.9386901855469	1198.950073242188	547.2666625976562	-284.4766540527344	1196.149658203125	577.5755615234375	-236.0809936523438	1843.809204101562	38.95635604858398	-306.4609375
